<svg width="172" height="18" viewBox="0 0 172 18" fill="none" xmlns="http://www.w3.org/2000/svg">
<path fill-rule="evenodd" clip-rule="evenodd" d="M0 9V17.2733H2.61295H5.22589V13.9867V10.7H11.1334H17.041V8.77334V6.84667H11.1334H5.22589V5.71334V4.58H11.247H17.2682V2.65334V0.726668H8.63408H0V9ZM37.7746 8.99502L33.6284 17.2733H36.3056H38.9831L39.7113 15.8L40.4395 14.3267H45.421H50.4021L51.2281 15.8L52.054 17.2733H54.8953H57.7368L56.4258 14.8367C55.7046 13.4964 53.7181 9.799 52.0113 6.62L48.908 0.840002L45.4144 0.778348L41.9207 0.716695L37.7746 8.99502ZM76.5707 8.9898V17.2733H84.9362C91.9537 17.2733 93.4998 17.2146 94.5298 16.9095C97.3032 16.0879 98.6773 13.1598 97.5015 10.5774C97.0412 9.56622 95.9169 8.50723 95.0819 8.29802C94.563 8.16814 94.5787 8.13572 95.497 7.4394C97.721 5.75368 97.3756 2.63271 94.8268 1.38105C93.7332 0.843855 93.6641 0.839548 85.148 0.773135L76.5707 0.706268V8.9898ZM117.242 9V17.2733H125.762H134.283V15.2333V13.1933H128.489H122.695V6.96V0.726668H119.968H117.242V9ZM154.05 9V17.2733H162.911H171.773V15.3467V13.42H165.524H159.276V12.06V10.7H165.297H171.318V8.77334V6.84667H165.297H159.276V5.71334V4.58H165.411H171.546V2.65334V0.726668H162.798H154.05V9ZM81.7966 5.6V6.84667H86.2422C88.8722 6.84667 90.8671 6.75079 91.1273 6.61207C91.631 6.34302 91.738 5.06824 91.2941 4.62534C91.0998 4.43154 89.6936 4.35334 86.409 4.35334H81.7966V5.6ZM43.9045 7.4156C43.1259 8.9753 42.4888 10.3013 42.4888 10.3623C42.4888 10.4235 43.818 10.4733 45.4425 10.4733C47.0671 10.4733 48.3963 10.4117 48.3963 10.3362C48.3963 10.192 45.4403 4.58 45.3644 4.58C45.3403 4.58 44.6834 5.85614 43.9045 7.4156ZM81.7966 12.06V13.6467H86.5174C91.9614 13.6467 92.2484 13.5673 92.2484 12.06C92.2484 10.5527 91.9614 10.4733 86.5174 10.4733H81.7966V12.06Z" fill="#080B13"/>
</svg>
